<?xml version="1.0" standalone="no"?>
<!DOCTYPE svg PUBLIC "-//W3C//DTD SVG 20010904//EN"
 "http://www.w3.org/TR/2001/REC-SVG-20010904/DTD/svg10.dtd">
<svg version="1.0" xmlns="http://www.w3.org/2000/svg"
 width="255.000000pt" height="255.000000pt" viewBox="0 0 255.000000 255.000000"
 preserveAspectRatio="xMidYMid meet">
<metadata>
Created by potrace 1.11, written by Peter Selinger 2001-2013
</metadata>
<g transform="translate(0.000000,255.000000) scale(0.100000,-0.100000)"
fill="#000000" stroke="none">
<path d="M9 1978 c0 -16 -1 -58 -1 -95 l-1 -68 361 -3 362 -2 1 22 c0 13 1 56
2 96 l2 72 -65 1 c-36 0 -199 1 -362 2 l-298 2 -1 -27z"/>
<path d="M13 1727 c-4 -7 -7 -367 -4 -462 1 -21 2 -21 1260 -20 693 0 1263 4
1268 8 4 5 8 114 8 243 l0 234 -25 1 c-212 5 -2503 2 -2507 -4z"/>
<path d="M9 1151 c0 -9 -1 -118 -2 -243 l-2 -228 603 0 602 0 1 33 c0 43 0
395 0 428 l-1 26 -600 0 c-545 0 -600 -1 -601 -16z"/>
<path d="M44 602 c-20 -2 -34 -10 -36 -20 -11 -40 -2 -42 163 -42 l160 0 -3
31 -3 32 -125 1 c-69 0 -139 0 -156 -2z"/>
</g>
</svg>
